# xmcd CD database file
#
# Track frame offsets:
#	150
#	16078
#	43387
#	61105
#	74119
#	93967
#	113577
#	131828
#	151271
#	165746
#	181472
#	198421
#	215626
#	231757
#	253207
#	268436
#	286280
#	305581
#
# Disc length: 4336 seconds
#
# Revision: 3
# Processed by: cddbd v1.5.2PL0 Copyright (c) Steve Scherf et al.
# Submitted via: CDex 1.51
#
DISCID=1310ee12
DTITLE=Various Artist - SFG319
DYEAR=2012
DGENRE=Karaoke
TTITLE0=Wiley f. Rymez and MsD - Heatwave (duet)
TTITLE1=Emeli Sande - Read all about it part3
TTITLE2=Little Mix - Wings
TTITLE3=Dizzee Rascal f. Pepper - Scream (duet)
TTITLE4=Devlin f. Ed Sheeran - Watchtower (all along the)
TTITLE5=Pitball f. Shakira - Get it started (duet)
TTITLE6=Karmin - Brokenhearted
TTITLE7=Rita Ora - How we do (party)
TTITLE8=Sam and the womp - Bom Bom
TTITLE9=Taylor Swift - We are never ever getting back together
TTITLE10=Porter Robinson - Language
TTITLE11=Angel - Wonderful
TTITLE12=Far east movment f. Cover Drive - Turn up the love (duet)
TTITLE13=Labrinth - Treatment (duet)
TTITLE14=Cover Drive - Explode
TTITLE15=Jessie Ware - Wildest moments
TTITLE16=Trey Songz - Simply amazing
TTITLE17=Amelia Lily - You bring me joy
EXTD=YEAR: 2012
EXTT0=
EXTT1=
EXTT2=
EXTT3=
EXTT4=
EXTT5=
EXTT6=
EXTT7=
EXTT8=
EXTT9=
EXTT10=
EXTT11=
EXTT12=
EXTT13=
EXTT14=
EXTT15=
EXTT16=
EXTT17=
PLAYORDER=
